<mxfile host="app.diagrams.net" modified="2023-06-03T08:35:47.481Z" agent="Mozilla/5.0 (Macintosh; Intel Mac OS X 10_15_7) AppleWebKit/537.36 (KHTML, like Gecko) Chrome/113.0.0.0 Safari/537.36" version="21.3.7" etag="NPqEyKk8_3BSAmxzqEqI" type="github">
  <diagram name="第 1 页" id="cGX7vAluZ3g1Ok7xw26A">
    <mxGraphModel>
      <root>
        <mxCell id="0" />
        <mxCell id="1" parent="0" />
      </root>
    </mxGraphModel>
  </diagram>
</mxfile>
